ffmpeg version 2.3.2-   http://johnvansickle.com/ffmpeg/    Copyright (c) 2000-2014 the FFmpeg developers
  built on Aug 13 2014 22:30:42 with gcc 4.8 (Debian 4.8.3-7)
  configuration: --enable-gpl --enable-version3 --disable-shared --disable-debug --enable-runtime-cpudetect --enable-libmp3lame --enable-libx264 --enable-libwebp --enable-libspeex --enable-libvorbis --enable-libvpx --enable-libfreetype --enable-fontconfig --enable-libxvid --enable-libopencore-amrnb --enable-libopencore-amrwb --enable-libtheora --enable-libvo-aacenc --enable-libvo-amrwbenc --enable-gray --enable-libopenjpeg --enable-libopus --disable-ffserver --enable-libass --enable-gnutls --cc=gcc-4.8
  libavutil      52. 92.100 / 52. 92.100
  libavcodec     55. 69.100 / 55. 69.100
  libavformat    55. 48.100 / 55. 48.100
  libavdevice    55. 13.102 / 55. 13.102
  libavfilter     4. 11.100 /  4. 11.100
  libswscale      2.  6.100 /  2.  6.100
  libswresample   0. 19.100 /  0. 19.100
  libpostproc    52.  3.100 / 52.  3.100
[rtsp @ 0x3108940] Could not find codec parameters for stream 1 (Audio: none, 8000 Hz, 1 channels): unknown codec
Consider increasing the value for the 'analyzeduration' and 'probesize' options
Guessed Channel Layout for  Input Stream #0.1 : mono
Input #0, rtsp, from 'rtsp://222.197.180.250:50000/video0.sdp':
  Metadata:
    title           : RTSP/RTP stream from IPNC
    comment         : 2?videoCodecType=H.264
  Duration: N/A, start: 0.000000, bitrate: N/A
    Stream #0:0: Video: h264 (Baseline), yuv420p, 1280x720, 15 fps, 15 tbr, 90k tbn, 180k tbc
    Stream #0:1: Audio: none, 8000 Hz, 1 channels
Output #0, flv, to 'rtmp://127.0.0.1:8085/live/camera-113':
  Metadata:
    title           : RTSP/RTP stream from IPNC
    comment         : 2?videoCodecType=H.264
    encoder         : Lavf55.48.100
    Stream #0:0: Video: h264 ([7][0][0][0] / 0x0007), yuv420p, 1280x720, q=2-31, 15 fps, 1k tbn, 90k tbc
Stream mapping:
  Stream #0:0 -> #0:0 (copy)
Press [q] to stop, [?] for help
frame=   92 fps=0.0 q=-1.0 size=     404kB time=00:00:06.00 bitrate= 551.5kbits/s    frame=  100 fps= 91 q=-1.0 size=     468kB time=00:00:06.53 bitrate= 586.8kbits/s    frame=  108 fps= 67 q=-1.0 size=     475kB time=00:00:07.06 bitrate= 551.1kbits/s    frame=  115 fps= 54 q=-1.0 size=     543kB time=00:00:07.53 bitrate= 590.9kbits/s    frame=  124 fps= 46 q=-1.0 size=     551kB time=00:00:08.13 bitrate= 555.3kbits/s    frame=  133 fps= 41 q=-1.0 size=     615kB time=00:00:08.73 bitrate= 577.0kbits/s    frame=  140 fps= 37 q=-1.0 size=     621kB time=00:00:09.20 bitrate= 553.3kbits/s    frame=  148 fps= 34 q=-1.0 size=     684kB time=00:00:09.73 bitrate= 575.6kbits/s    frame=  156 fps= 32 q=-1.0 size=     690kB time=00:00:10.26 bitrate= 550.4kbits/s    frame=  164 fps= 30 q=-1.0 size=     753kB time=00:00:10.80 bitrate= 571.1kbits/s    frame=  173 fps= 29 q=-1.0 size=     759kB time=00:00:11.40 bitrate= 545.3kbits/s    frame=  181 fps= 28 q=-1.0 size=     817kB time=00:00:11.93 bitrate= 561.1kbits/s    frame=  188 fps= 27 q=-1.0 size=     823kB time=00:00:12.40 bitrate= 543.5kbits/s    frame=  197 fps= 26 q=-1.0 size=     887kB time=00:00:13.00 bitrate= 558.8kbits/s    frame=  205 fps= 25 q=-1.0 size=     892kB time=00:00:13.53 bitrate= 539.7kbits/s    frame=  213 fps= 25 q=-1.0 size=     955kB time=00:00:14.06 bitrate= 555.9kbits/s    frame=  221 fps= 24 q=-1.0 size=     959kB time=00:00:14.60 bitrate= 538.4kbits/s    frame=  231 fps= 24 q=-1.0 size=    1024kB time=00:00:15.26 bitrate= 549.6kbits/s    frame=  238 fps= 23 q=-1.0 size=    1029kB time=00:00:15.73 bitrate= 535.8kbits/s    frame=  246 fps= 23 q=-1.0 size=    1094kB time=00:00:16.26 bitrate= 550.7kbits/s    frame=  253 fps= 22 q=-1.0 size=    1099kB time=00:00:16.73 bitrate= 537.8kbits/s    frame=  262 fps= 22 q=-1.0 size=    1162kB time=00:00:17.33 bitrate= 549.2kbits/s    frame=  269 fps= 22 q=-1.0 size=    1167kB time=00:00:17.80 bitrate= 537.3kbits/s    frame=  278 fps= 21 q=-1.0 size=    1238kB time=00:00:18.40 bitrate= 551.1kbits/s    frame=  286 fps= 21 q=-1.0 size=    1243kB time=00:00:18.93 bitrate= 537.6kbits/s    frame=  294 fps= 21 q=-1.0 size=    1290kB time=00:00:19.46 bitrate= 543.0kbits/s    frame=  301 fps= 21 q=-1.0 size=    1298kB time=00:00:19.93 bitrate= 533.6kbits/s    frame=  310 fps= 21 q=-1.0 size=    1360kB time=00:00:20.53 bitrate= 542.7kbits/s    frame=  319 fps= 20 q=-1.0 size=    1368kB time=00:00:21.13 bitrate= 530.2kbits/s    frame=  327 fps= 20 q=-1.0 size=    1432kB time=00:00:21.66 bitrate= 541.6kbits/s    frame=  335 fps= 20 q=-1.0 size=    1438kB time=00:00:22.20 bitrate= 530.7kbits/s    frame=  344 fps= 20 q=-1.0 size=    1515kB time=00:00:22.80 bitrate= 544.2kbits/s    frame=  352 fps= 20 q=-1.0 size=    1519kB time=00:00:23.33 bitrate= 533.4kbits/s    frame=  359 fps= 20 q=-1.0 size=    1575kB time=00:00:23.80 bitrate= 542.2kbits/s    frame=  368 fps= 19 q=-1.0 size=    1582kB time=00:00:24.40 bitrate= 531.0kbits/s    frame=  376 fps= 19 q=-1.0 size=    1651kB time=00:00:24.93 bitrate= 542.4kbits/s    frame=  383 fps= 19 q=-1.0 size=    1655kB time=00:00:25.40 bitrate= 533.8kbits/s    frame=  392 fps= 19 q=-1.0 size=    1719kB time=00:00:26.00 bitrate= 541.6kbits/s    frame=  402 fps= 19 q=-1.0 size=    1782kB time=00:00:26.66 bitrate= 547.5kbits/s    frame=  409 fps= 19 q=-1.0 size=    1786kB time=00:00:27.13 bitrate= 539.2kbits/s    frame=  417 fps= 19 q=-1.0 size=    1844kB time=00:00:27.66 bitrate= 545.9kbits/s    frame=  425 fps= 19 q=-1.0 size=    1851kB time=00:00:28.20 bitrate= 537.6kbits/s    frame=  433 fps= 19 q=-1.0 size=    1904kB time=00:00:28.73 bitrate= 542.9kbits/s    frame=  441 fps= 19 q=-1.0 size=    1913kB time=00:00:29.26 bitrate= 535.5kbits/s    frame=  448 fps= 18 q=-1.0 size=    1918kB time=00:00:29.73 bitrate= 528.3kbits/s    frame=  456 fps= 18 q=-1.0 size=    1979kB time=00:00:30.26 bitrate= 535.7kbits/s    frame=  465 fps= 18 q=-1.0 size=    2044kB time=00:00:30.86 bitrate= 542.4kbits/s    frame=  472 fps= 18 q=-1.0 size=    2051kB time=00:00:31.33 bitrate= 536.1kbits/s    frame=  480 fps= 18 q=-1.0 size=    2057kB time=00:00:31.86 bitrate= 528.8kbits/s    frame=  488 fps= 18 q=-1.0 size=    2123kB time=00:00:32.40 bitrate= 536.8kbits/s    frame=  497 fps= 18 q=-1.0 size=    2182kB time=00:00:33.00 bitrate= 541.6kbits/s    frame=  504 fps= 18 q=-1.0 size=    2189kB time=00:00:33.46 bitrate= 535.8kbits/s    frame=  513 fps= 18 q=-1.0 size=    2249kB time=00:00:34.06 bitrate= 540.9kbits/s    frame=  520 fps= 18 q=-1.0 size=    2256kB time=00:00:34.53 bitrate= 535.3kbits/s    frame=  528 fps= 18 q=-1.0 size=    2265kB time=00:00:35.06 bitrate= 529.1kbits/s    frame=  536 fps= 18 q=-1.0 size=    2323kB time=00:00:35.60 bitrate= 534.5kbits/s    frame=  546 fps= 18 q=-1.0 size=    2385kB time=00:00:36.26 bitrate= 538.6kbits/s    frame=  553 fps= 18 q=-1.0 size=    2391kB time=00:00:36.73 bitrate= 533.3kbits/s    frame=  561 fps= 18 q=-1.0 size=    2463kB time=00:00:37.26 bitrate= 541.4kbits/s    frame=  568 fps= 18 q=-1.0 size=    2469kB time=00:00:37.73 bitrate= 536.1kbits/s    frame=  577 fps= 18 q=-1.0 size=    2538kB time=00:00:38.33 bitrate= 542.5kbits/s    frame=  584 fps= 17 q=-1.0 size=    2545kB time=00:00:38.80 bitrate= 537.3kbits/s    frame=  593 fps= 17 q=-1.0 size=    2603kB time=00:00:39.40 bitrate= 541.2kbits/s    frame=  600 fps= 17 q=-1.0 size=    2609kB time=00:00:39.86 bitrate= 536.0kbits/s    frame=  609 fps= 17 q=-1.0 size=    2676kB time=00:00:40.46 bitrate= 541.6kbits/s    frame=  616 fps= 17 q=-1.0 size=    2681kB time=00:00:40.93 bitrate= 536.5kbits/s    frame=  624 fps= 17 q=-1.0 size=    2684kB time=00:00:41.46 bitrate= 530.3kbits/s    frame=  632 fps= 17 q=-1.0 size=    2750kB time=00:00:42.00 bitrate= 536.4kbits/s    frame=  640 fps= 17 q=-1.0 size=    2754kB time=00:00:42.53 bitrate= 530.3kbits/s    frame=  648 fps= 17 q=-1.0 size=    2803kB time=00:00:43.06 bitrate= 533.2kbits/s    frame=  657 fps= 17 q=-1.0 size=    2865kB time=00:00:43.66 bitrate= 537.5kbits/s    frame=  664 fps= 17 q=-1.0 size=    2877kB time=00:00:44.13 bitrate= 534.1kbits/s    frame=  672 fps= 17 q=-1.0 size=    2888kB time=00:00:44.66 bitrate= 529.7kbits/s    frame=  680 fps= 17 q=-1.0 size=    2941kB time=00:00:45.20 bitrate= 533.0kbits/s    frame=  690 fps= 17 q=-1.0 size=    2999kB time=00:00:45.86 bitrate= 535.6kbits/s    frame=  697 fps= 17 q=-1.0 size=    3007kB time=00:00:46.33 bitrate= 531.6kbits/s    frame=  705 fps= 17 q=-1.0 size=    3072kB time=00:00:46.86 bitrate= 536.9kbits/s    frame=  713 fps= 17 q=-1.0 size=    3081kB time=00:00:47.40 bitrate= 532.5kbits/s    frame=  722 fps= 17 q=-1.0 size=    3146kB time=00:00:48.00 bitrate= 536.9kbits/s    frame=  731 fps= 17 q=-1.0 size=    3154kB time=00:00:48.60 bitrate= 531.6kbits/s    frame=  739 fps= 17 q=-1.0 size=    3218kB time=00:00:49.13 bitrate= 536.6kbits/s    frame=  747 fps= 17 q=-1.0 size=    3224kB time=00:00:49.66 bitrate= 531.8kbits/s    frame=  755 fps= 17 q=-1.0 size=    3293kB time=00:00:50.20 bitrate= 537.3kbits/s    frame=  763 fps= 17 q=-1.0 size=    3300kB time=00:00:50.73 bitrate= 532.8kbits/s    frame=  772 fps= 17 q=-1.0 size=    3362kB time=00:00:51.33 bitrate= 536.6kbits/s    frame=  780 fps= 17 q=-1.0 size=    3367kB time=00:00:51.86 bitrate= 531.9kbits/s    frame=  788 fps= 17 q=-1.0 size=    3431kB time=00:00:52.40 bitrate= 536.3kbits/s    frame=  796 fps= 17 q=-1.0 size=    3435kB time=00:00:52.93 bitrate= 531.6kbits/s    frame=  805 fps= 17 q=-1.0 size=    3498kB time=00:00:53.53 bitrate= 535.2kbits/s    frame=  813 fps= 17 q=-1.0 size=    3502kB time=00:00:54.06 bitrate= 530.6kbits/s    frame=  820 fps= 17 q=-1.0 size=    3569kB time=00:00:54.53 bitrate= 536.2kbits/s    frame=  829 fps= 17 q=-1.0 size=    3573kB time=00:00:55.13 bitrate= 530.9kbits/s    frame=  837 fps= 17 q=-1.0 size=    3636kB time=00:00:55.66 bitrate= 535.1kbits/s    frame=  845 fps= 17 q=-1.0 size=    3641kB time=00:00:56.20 bitrate= 530.7kbits/s    frame=  854 fps= 17 q=-1.0 size=    3701kB time=00:00:56.80 bitrate= 533.7kbits/s    frame=  862 fps= 17 q=-1.0 size=    3705kB time=00:00:57.33 bitrate= 529.4kbits/s    frame=  870 fps= 17 q=-1.0 size=    3769kB time=00:00:57.86 bitrate= 533.5kbits/s    frame=  877 fps= 17 q=-1.0 size=    3773kB time=00:00:58.33 bitrate= 529.9kbits/s    frame=  886 fps= 17 q=-1.0 size=    3843kB time=00:00:58.93 bitrate= 534.2kbits/s    frame=  894 fps= 17 q=-1.0 size=    3850kB time=00:00:59.46 bitrate= 530.3kbits/s    frame=  901 fps= 17 q=-1.0 size=    3894kB time=00:00:59.93 bitrate= 532.3kbits/s    frame=  909 fps= 17 q=-1.0 size=    3908kB time=00:01:00.46 bitrate= 529.4kbits/s    frame=  917 fps= 17 q=-1.0 size=    3969kB time=00:01:01.00 bitrate= 533.1kbits/s    frame=  925 fps= 16 q=-1.0 size=    3978kB time=00:01:01.53 bitrate= 529.5kbits/s    frame=  933 fps= 16 q=-1.0 size=    4044kB time=00:01:02.06 bitrate= 533.8kbits/s    frame=  941 fps= 16 q=-1.0 size=    4050kB time=00:01:02.60 bitrate= 530.0kbits/s    frame=  950 fps= 16 q=-1.0 size=    4116kB time=00:01:03.20 bitrate= 533.6kbits/s    frame=  958 fps= 16 q=-1.0 size=    4122kB time=00:01:03.73 bitrate= 529.8kbits/s    frame=  966 fps= 16 q=-1.0 size=    4186kB time=00:01:04.26 bitrate= 533.6kbits/s    frame=  974 fps= 16 q=-1.0 size=    4192kB time=00:01:04.80 bitrate= 530.0kbits/s    frame=  982 fps= 16 q=-1.0 size=    4256kB time=00:01:05.33 bitrate= 533.6kbits/s    frame=  990 fps= 16 q=-1.0 size=    4261kB time=00:01:05.86 bitrate= 529.9kbits/s    frame=  998 fps= 16 q=-1.0 size=    4324kB time=00:01:06.40 bitrate= 533.5kbits/s    frame= 1006 fps= 16 q=-1.0 size=    4329kB time=00:01:06.93 bitrate= 529.9kbits/s    frame= 1014 fps= 16 q=-1.0 size=    4389kB time=00:01:07.46 bitrate= 532.9kbits/s    frame= 1022 fps= 16 q=-1.0 size=    4396kB time=00:01:08.00 bitrate= 529.5kbits/s    frame= 1030 fps= 16 q=-1.0 size=    4451kB time=00:01:08.53 bitrate= 532.1kbits/s    frame= 1038 fps= 16 q=-1.0 size=    4460kB time=00:01:09.06 bitrate= 529.0kbits/s    frame= 1046 fps= 16 q=-1.0 size=    4524kB time=00:01:09.60 bitrate= 532.5kbits/s    frame= 1054 fps= 16 q=-1.0 size=    4530kB time=00:01:10.13 bitrate= 529.1kbits/s    frame= 1062 fps= 16 q=-1.0 size=    4600kB time=00:01:10.66 bitrate= 533.2kbits/s    frame= 1070 fps= 16 q=-1.0 size=    4605kB time=00:01:11.20 bitrate= 529.8kbits/s    frame= 1078 fps= 16 q=-1.0 size=    4665kB time=00:01:11.73 bitrate= 532.7kbits/s    frame= 1087 fps= 16 q=-1.0 size=    4672kB time=00:01:12.33 bitrate= 529.2kbits/s    frame= 1096 fps= 16 q=-1.0 size=    4722kB time=00:01:12.93 bitrate= 530.3kbits/s    frame= 1105 fps= 16 q=-1.0 size=    4781kB time=00:01:13.53 bitrate= 532.7kbits/s    frame= 1113 fps= 16 q=-1.0 size=    4794kB time=00:01:14.06 bitrate= 530.3kbits/s    frame= 1120 fps= 16 q=-1.0 size=    4802kB time=00:01:14.53 bitrate= 527.8kbits/s    frame= 1128 fps= 16 q=-1.0 size=    4867kB time=00:01:15.06 bitrate= 531.2kbits/s    frame= 1136 fps= 16 q=-1.0 size=    4878kB time=00:01:15.60 bitrate= 528.6kbits/s    frame= 1145 fps= 16 q=-1.0 size=    4947kB time=00:01:16.20 bitrate= 531.8kbits/s    frame= 1153 fps= 16 q=-1.0 size=    5020kB time=00:01:16.73 bitrate= 535.9kbits/s    frame= 1161 fps= 16 q=-1.0 size=    5027kB time=00:01:17.26 bitrate= 533.0kbits/s    frame= 1170 fps= 16 q=-1.0 size=    5060kB time=00:01:17.86 bitrate= 532.3kbits/s    frame= 1177 fps= 16 q=-1.0 size=    5070kB time=00:01:18.33 bitrate= 530.2kbits/s    frame= 1185 fps= 16 q=-1.0 size=    5131kB time=00:01:18.86 bitrate= 533.0kbits/s    frame= 1193 fps= 16 q=-1.0 size=    5146kB time=00:01:19.40 bitrate= 531.0kbits/s    frame= 1202 fps= 16 q=-1.0 size=    5218kB time=00:01:20.00 bitrate= 534.3kbits/s    frame= 1210 fps= 16 q=-1.0 size=    5228kB time=00:01:20.53 bitrate= 531.8kbits/s    frame= 1218 fps= 16 q=-1.0 size=    5303kB time=00:01:21.06 bitrate= 535.9kbits/s    frame= 1226 fps= 16 q=-1.0 size=    5308kB time=00:01:21.60 bitrate= 532.9kbits/s    frame= 1234 fps= 16 q=-1.0 size=    5374kB time=00:01:22.13 bitrate= 536.0kbits/s    frame= 1243 fps= 16 q=-1.0 size=    5378kB time=00:01:22.73 bitrate= 532.5kbits/s    frame= 1249 fps= 16 q=-1.0 size=    5432kB time=00:01:23.13 bitrate= 535.3kbits/s    frame= 1257 fps= 16 q=-1.0 size=    5436kB time=00:01:23.66 bitrate= 532.3kbits/s    frame= 1266 fps= 16 q=-1.0 size=    5484kB time=00:01:24.26 bitrate= 533.1kbits/s    frame= 1273 fps= 16 q=-1.0 size=    5488kB time=00:01:24.73 bitrate= 530.6kbits/s    frame= 1281 fps= 16 q=-1.0 size=    5546kB time=00:01:25.26 bitrate= 532.8kbits/s    frame= 1289 fps= 16 q=-1.0 size=    5555kB time=00:01:25.80 bitrate= 530.4kbits/s    frame= 1297 fps= 16 q=-1.0 size=    5604kB time=00:01:26.33 bitrate= 531.8kbits/s    frame= 1305 fps= 16 q=-1.0 size=    5614kB time=00:01:26.86 bitrate= 529.4kbits/s    frame= 1312 fps= 16 q=-1.0 size=    5622kB time=00:01:27.33 bitrate= 527.3kbits/s    frame= 1321 fps= 16 q=-1.0 size=    5687kB time=00:01:27.93 bitrate= 529.8kbits/s    frame= 1330 fps= 16 q=-1.0 size=    5741kB time=00:01:28.53 bitrate= 531.2kbits/s    frame= 1337 fps= 16 q=-1.0 size=    5751kB time=00:01:29.00 bitrate= 529.3kbits/s    frame= 1345 fps= 16 q=-1.0 size=    5806kB time=00:01:29.53 bitrate= 531.2kbits/s    frame= 1354 fps= 16 q=-1.0 size=    5818kB time=00:01:30.13 bitrate= 528.8kbits/s    frame= 1361 fps= 16 q=-1.0 size=    5878kB time=00:01:30.60 bitrate= 531.5kbits/s    frame= 1369 fps= 16 q=-1.0 size=    5889kB time=00:01:31.13 bitrate= 529.4kbits/s    frame= 1377 fps= 16 q=-1.0 size=    5966kB time=00:01:31.66 bitrate= 533.1kbits/s    frame= 1385 fps= 16 q=-1.0 size=    5975kB time=00:01:32.20 bitrate= 530.9kbits/s    frame= 1395 fps= 16 q=-1.0 size=    6029kB time=00:01:32.86 bitrate= 531.8kbits/s    frame= 1403 fps= 16 q=-1.0 size=    6038kB time=00:01:33.40 bitrate= 529.6kbits/s    frame= 1412 fps= 16 q=-1.0 size=    6100kB time=00:01:34.00 bitrate= 531.6kbits/s    frame= 1420 fps= 16 q=-1.0 size=    6108kB time=00:01:34.53 bitrate= 529.3kbits/s    frame= 1428 fps= 16 q=-1.0 size=    6169kB time=00:01:35.06 bitrate= 531.6kbits/s    frame= 1436 fps= 16 q=-1.0 size=    6177kB time=00:01:35.60 bitrate= 529.3kbits/s    frame= 1444 fps= 16 q=-1.0 size=    6238kB time=00:01:36.13 bitrate= 531.5kbits/s    frame= 1452 fps= 16 q=-1.0 size=    6245kB time=00:01:36.66 bitrate= 529.2kbits/s    frame= 1460 fps= 16 q=-1.0 size=    6299kB time=00:01:37.20 bitrate= 530.9kbits/s    frame= 1469 fps= 16 q=-1.0 size=    6309kB time=00:01:37.80 bitrate= 528.5kbits/s    frame= 1477 fps= 16 q=-1.0 size=    6370kB time=00:01:38.33 bitrate= 530.7kbits/s    frame= 1486 fps= 16 q=-1.0 size=    6379kB time=00:01:38.93 bitrate= 528.2kbits/s    frame= 1493 fps= 16 q=-1.0 size=    6443kB time=00:01:39.40 bitrate= 531.0kbits/s    frame= 1502 fps= 16 q=-1.0 size=    6450kB time=00:01:40.00 bitrate= 528.4kbits/s    frame= 1510 fps= 16 q=-1.0 size=    6518kB time=00:01:40.53 bitrate= 531.1kbits/s    frame= 1519 fps= 16 q=-1.0 size=    6523kB time=00:01:41.13 bitrate= 528.4kbits/s    frame= 1527 fps= 16 q=-1.0 size=    6591kB time=00:01:41.66 bitrate= 531.1kbits/s    frame= 1535 fps= 16 q=-1.0 size=    6595kB time=00:01:42.20 bitrate= 528.6kbits/s    frame= 1543 fps= 16 q=-1.0 size=    6664kB time=00:01:42.73 bitrate= 531.4kbits/s    frame= 1551 fps= 16 q=-1.0 size=    6668kB time=00:01:43.26 bitrate= 529.0kbits/s    frame= 1559 fps= 16 q=-1.0 size=    6713kB time=00:01:43.80 bitrate= 529.8kbits/s    frame= 1567 fps= 16 q=-1.0 size=    6722kB time=00:01:44.33 bitrate= 527.8kbits/s    frame= 1575 fps= 16 q=-1.0 size=    6785kB time=00:01:44.86 bitrate= 530.0kbits/s    frame= 1583 fps= 16 q=-1.0 size=    6794kB time=00:01:45.40 bitrate= 528.1kbits/s    frame= 1590 fps= 16 q=-1.0 size=    6860kB time=00:01:45.86 bitrate= 530.9kbits/s    frame= 1598 fps= 16 q=-1.0 size=    6868kB time=00:01:46.40 bitrate= 528.7kbits/s    frame= 1606 fps= 16 q=-1.0 size=    6920kB time=00:01:46.93 bitrate= 530.2kbits/s    frame= 1614 fps= 16 q=-1.0 size=    6930kB time=00:01:47.46 bitrate= 528.2kbits/s    frame= 1622 fps= 16 q=-1.0 size=    6991kB time=00:01:48.00 bitrate= 530.3kbits/s    frame= 1631 fps= 16 q=-1.0 size=    7002kB time=00:01:48.60 bitrate= 528.1kbits/s    frame= 1641 fps= 16 q=-1.0 size=    7064kB time=00:01:49.26 bitrate= 529.6kbits/s    frame= 1648 fps= 16 q=-1.0 size=    7069kB time=00:01:49.73 bitrate= 527.8kbits/s    frame= 1656 fps= 16 q=-1.0 size=    7129kB time=00:01:50.26 bitrate= 529.6kbits/s    frame= 1664 fps= 16 q=-1.0 size=    7137kB time=00:01:50.80 bitrate= 527.6kbits/s    frame= 1672 fps= 16 q=-1.0 size=    7201kB time=00:01:51.33 bitrate= 529.9kbits/s    frame= 1680 fps= 16 q=-1.0 size=    7207kB time=00:01:51.86 bitrate= 527.8kbits/s    frame= 1689 fps= 16 q=-1.0 size=    7272kB time=00:01:52.46 bitrate= 529.7kbits/s    frame= 1696 fps= 16 q=-1.0 size=    7277kB time=00:01:52.93 bitrate= 527.8kbits/s    frame= 1704 fps= 16 q=-1.0 size=    7341kB time=00:01:53.46 bitrate= 530.0kbits/s    frame= 1712 fps= 16 q=-1.0 size=    7346kB time=00:01:54.00 bitrate= 527.9kbits/s    frame= 1720 fps= 16 q=-1.0 size=    7406kB time=00:01:54.53 bitrate= 529.7kbits/s    frame= 1728 fps= 16 q=-1.0 size=    7413kB time=00:01:55.06 bitrate= 527.7kbits/s    frame= 1735 fps= 16 q=-1.0 size=    7476kB time=00:01:55.53 bitrate= 530.1kbits/s    frame= 1742 fps= 16 q=-1.0 size=    7483kB time=00:01:56.00 bitrate= 528.4kbits/s    frame= 1751 fps= 16 q=-1.0 size=    7548kB time=00:01:56.60 bitrate= 530.3kbits/s    frame= 1759 fps= 16 q=-1.0 size=    7554kB time=00:01:57.13 bitrate= 528.3kbits/s    frame= 1767 fps= 16 q=-1.0 size=    7624kB time=00:01:57.66 bitrate= 530.8kbits/s    frame= 1775 fps= 16 q=-1.0 size=    7629kB time=00:01:58.20 bitrate= 528.7kbits/s    frame= 1783 fps= 16 q=-1.0 size=    7689kB time=00:01:58.73 bitrate= 530.5kbits/s    frame= 1792 fps= 16 q=-1.0 size=    7696kB time=00:01:59.33 bitrate= 528.3kbits/s    frame= 1801 fps= 16 q=-1.0 size=    7764kB time=00:01:59.93 bitrate= 530.3kbits/s    frame= 1808 fps= 16 q=-1.0 size=    7767kB time=00:02:00.40 bitrate= 528.5kbits/s    frame= 1817 fps= 16 q=-1.0 size=    7834kB time=00:02:01.00 bitrate= 530.4kbits/s    frame= 1826 fps= 16 q=-1.0 size=    7900kB time=00:02:01.60 bitrate= 532.2kbits/s    frame= 1834 fps= 16 q=-1.0 size=    7904kB time=00:02:02.13 bitrate= 530.2kbits/s    frame= 1842 fps= 16 q=-1.0 size=    7951kB time=00:02:02.66 bitrate= 531.0kbits/s    frame= 1850 fps= 16 q=-1.0 size=    7962kB time=00:02:03.20 bitrate= 529.4kbits/s    frame= 1859 fps= 16 q=-1.0 size=    8028kB time=00:02:03.80 bitrate= 531.2kbits/s    frame= 1867 fps= 16 q=-1.0 size=    8041kB time=00:02:04.33 bitrate= 529.8kbits/s    frame= 1875 fps= 16 q=-1.0 size=    8117kB time=00:02:04.86 bitrate= 532.5kbits/s    frame= 1883 fps= 16 q=-1.0 size=    8121kB time=00:02:05.40 bitrate= 530.5kbits/s    frame= 1891 fps= 16 q=-1.0 size=    8190kB time=00:02:05.93 bitrate= 532.8kbits/s    frame= 1900 fps= 16 q=-1.0 size=    8193kB time=00:02:06.53 bitrate= 530.5kbits/s    frame= 1909 fps= 16 q=-1.0 size=    8255kB time=00:02:07.13 bitrate= 531.9kbits/s    frame= 1918 fps= 16 q=-1.0 size=    8258kB time=00:02:07.73 bitrate= 529.6kbits/s    frame= 1925 fps= 16 q=-1.0 size=    8318kB time=00:02:08.20 bitrate= 531.5kbits/s    frame= 1933 fps= 16 q=-1.0 size=    8321kB time=00:02:08.73 bitrate= 529.5kbits/s    frame= 1942 fps= 16 q=-1.0 size=    8379kB time=00:02:09.33 bitrate= 530.7kbits/s    frame= 1951 fps= 16 q=-1.0 size=    8382kB time=00:02:09.93 bitrate= 528.5kbits/s    frame= 1959 fps= 16 q=-1.0 size=    8443kB time=00:02:10.46 bitrate= 530.2kbits/s    frame= 1967 fps= 16 q=-1.0 size=    8447kB time=00:02:11.00 bitrate= 528.2kbits/s    frame= 1975 fps= 16 q=-1.0 size=    8514kB time=00:02:11.53 bitrate= 530.3kbits/s    frame= 1984 fps= 16 q=-1.0 size=    8517kB time=00:02:12.13 bitrate= 528.0kbits/s    frame= 1992 fps= 16 q=-1.0 size=    8582kB time=00:02:12.66 bitrate= 529.9kbits/s    frame= 2000 fps= 16 q=-1.0 size=    8587kB time=00:02:13.20 bitrate= 528.1kbits/s    frame= 2008 fps= 16 q=-1.0 size=    8647kB time=00:02:13.73 bitrate= 529.7kbits/s    frame= 2016 fps= 16 q=-1.0 size=    8652kB time=00:02:14.26 bitrate= 527.9kbits/s    frame= 2025 fps= 16 q=-1.0 size=    8719kB time=00:02:14.86 bitrate= 529.6kbits/s    frame= 2032 fps= 16 q=-1.0 size=    8722kB time=00:02:15.33 bitrate= 527.9kbits/s    frame= 2040 fps= 16 q=-1.0 size=    8796kB time=00:02:15.86 bitrate= 530.3kbits/s    frame= 2048 fps= 16 q=-1.0 size=    8798kB time=00:02:16.40 bitrate= 528.4kbits/s    frame= 2056 fps= 16 q=-1.0 size=    8865kB time=00:02:16.93 bitrate= 530.3kbits/s    frame= 2064 fps= 16 q=-1.0 size=    8867kB time=00:02:17.46 bitrate= 528.4kbits/s    frame= 2073 fps= 16 q=-1.0 size=    8935kB time=00:02:18.06 bitrate= 530.1kbits/s    frame= 2080 fps= 16 q=-1.0 size=    8937kB time=00:02:18.53 bitrate= 528.5kbits/s    frame= 2088 fps= 16 q=-1.0 size=    8996kB time=00:02:19.06 bitrate= 529.9kbits/s    frame= 2095 fps= 16 q=-1.0 size=    8998kB time=00:02:19.53 bitrate= 528.3kbits/s    frame= 2104 fps= 16 q=-1.0 size=    9066kB time=00:02:20.13 bitrate= 530.0kbits/s    frame= 2113 fps= 16 q=-1.0 size=    9130kB time=00:02:20.73 bitrate= 531.5kbits/s    frame= 2122 fps= 16 q=-1.0 size=    9137kB time=00:02:21.33 bitrate= 529.6kbits/s    frame= 2130 fps= 16 q=-1.0 size=    9204kB time=00:02:21.86 bitrate= 531.5kbits/s    frame= 2137 fps= 16 q=-1.0 size=    9207kB time=00:02:22.33 bitrate= 529.9kbits/s    frame= 2145 fps= 16 q=-1.0 size=    9263kB time=00:02:22.86 bitrate= 531.1kbits/s    frame= 2153 fps= 16 q=-1.0 size=    9269kB time=00:02:23.40 bitrate= 529.5kbits/s    frame= 2162 fps= 16 q=-1.0 size=    9335kB time=00:02:24.00 bitrate= 531.1kbits/s    frame= 2170 fps= 16 q=-1.0 size=    9339kB time=00:02:24.53 bitrate= 529.3kbits/s    frame= 2178 fps= 16 q=-1.0 size=    9401kB time=00:02:25.06 bitrate= 530.9kbits/s    frame= 2186 fps= 16 q=-1.0 size=    9405kB time=00:02:25.60 bitrate= 529.2kbits/s    frame= 2194 fps= 16 q=-1.0 size=    9472kB time=00:02:26.13 bitrate= 531.0kbits/s    frame= 2202 fps= 16 q=-1.0 size=    9475kB time=00:02:26.66 bitrate= 529.2kbits/s    frame= 2210 fps= 16 q=-1.0 size=    9542kB time=00:02:27.20 bitrate= 531.0kbits/s    frame= 2218 fps= 16 q=-1.0 size=    9546kB time=00:02:27.73 bitrate= 529.3kbits/s    frame= 2226 fps= 16 q=-1.0 size=    9615kB time=00:02:28.26 bitrate= 531.3kbits/s    frame= 2234 fps= 16 q=-1.0 size=    9619kB time=00:02:28.80 bitrate= 529.6kbits/s    frame= 2242 fps= 16 q=-1.0 size=    9685kB time=00:02:29.33 bitrate= 531.3kbits/s    frame= 2251 fps= 16 q=-1.0 size=    9691kB time=00:02:29.93 bitrate= 529.5kbits/s    frame= 2259 fps= 16 q=-1.0 size=    9742kB time=00:02:30.46 bitrate= 530.4kbits/s    frame= 2267 fps= 16 q=-1.0 size=    9748kB time=00:02:31.00 bitrate= 528.9kbits/s    frame= 2275 fps= 16 q=-1.0 size=    9815kB time=00:02:31.53 bitrate= 530.6kbits/s    frame= 2284 fps= 16 q=-1.0 size=    9820kB time=00:02:32.13 bitrate= 528.8kbits/s    frame= 2291 fps= 16 q=-1.0 size=    9889kB time=00:02:32.60 bitrate= 530.9kbits/s    frame= 2299 fps= 16 q=-1.0 size=    9894kB time=00:02:33.13 bitrate= 529.3kbits/s    frame= 2307 fps= 16 q=-1.0 size=    9962kB time=00:02:33.66 bitrate= 531.1kbits/s    frame= 2315 fps= 16 q=-1.0 size=    9965kB time=00:02:34.20 bitrate= 529.4kbits/s    frame= 2324 fps= 16 q=-1.0 size=   10031kB time=00:02:34.80 bitrate= 530.9kbits/s    frame= 2333 fps= 16 q=-1.0 size=   10035kB time=00:02:35.40 bitrate= 529.0kbits/s    frame= 2342 fps= 16 q=-1.0 size=   10102kB time=00:02:36.00 bitrate= 530.5kbits/s    frame= 2349 fps= 16 q=-1.0 size=   10104kB time=00:02:36.46 bitrate= 529.0kbits/s    frame= 2357 fps= 16 q=-1.0 size=   10165kB time=00:02:37.00 bitrate= 530.4kbits/s    frame= 2365 fps= 16 q=-1.0 size=   10168kB time=00:02:37.53 bitrate= 528.7kbits/s    frame= 2373 fps= 16 q=-1.0 size=   10228kB time=00:02:38.06 bitrate= 530.1kbits/s    frame= 2381 fps= 16 q=-1.0 size=   10232kB time=00:02:38.60 bitrate= 528.5kbits/s    frame= 2390 fps= 16 q=-1.0 size=   10294kB time=00:02:39.20 bitrate= 529.7kbits/s    frame= 2397 fps= 16 q=-1.0 size=   10298kB time=00:02:39.66 bitrate= 528.3kbits/s    frame= 2405 fps= 16 q=-1.0 size=   10364kB time=00:02:40.20 bitrate= 530.0kbits/s    frame= 2413 fps= 16 q=-1.0 size=   10367kB time=00:02:40.73 bitrate= 528.4kbits/s    frame= 2422 fps= 16 q=-1.0 size=   10438kB time=00:02:41.33 bitrate= 530.0kbits/s    frame= 2430 fps= 16 q=-1.0 size=   10441kB time=00:02:41.86 bitrate= 528.4kbits/s    frame= 2438 fps= 16 q=-1.0 size=   10516kB time=00:02:42.40 bitrate= 530.4kbits/s    frame= 2448 fps= 16 q=-1.0 size=   10519kB time=00:02:43.06 bitrate= 528.5kbits/s    frame= 2455 fps= 16 q=-1.0 size=   10579kB time=00:02:43.53 bitrate= 529.9kbits/s    frame= 2463 fps= 16 q=-1.0 size=   10583kB time=00:02:44.06 bitrate= 528.4kbits/s    frame= 2471 fps= 16 q=-1.0 size=   10650kB time=00:02:44.60 bitrate= 530.0kbits/s    frame= 2479 fps= 16 q=-1.0 size=   10652kB time=00:02:45.13 bitrate= 528.5kbits/s    frame= 2486 fps= 16 q=-1.0 size=   10720kB time=00:02:45.60 bitrate= 530.3kbits/s    frame= 2494 fps= 16 q=-1.0 size=   10722kB time=00:02:46.13 bitrate= 528.7kbits/s    frame= 2503 fps= 16 q=-1.0 size=   10784kB time=00:02:46.73 bitrate= 529.8kbits/s    frame= 2511 fps= 16 q=-1.0 size=   10787kB time=00:02:47.26 bitrate= 528.3kbits/s    frame= 2518 fps= 16 q=-1.0 size=   10847kB time=00:02:47.73 bitrate= 529.8kbits/s    frame= 2526 fps= 16 q=-1.0 size=   10850kB time=00:02:48.26 bitrate= 528.2kbits/s    frame= 2534 fps= 16 q=-1.0 size=   10917kB time=00:02:48.80 bitrate= 529.8kbits/s    frame= 2543 fps= 16 q=-1.0 size=   10921kB time=00:02:49.40 bitrate= 528.1kbits/s    frame= 2551 fps= 16 q=-1.0 size=   10989kB time=00:02:49.93 bitrate= 529.8kbits/s    frame= 2560 fps= 16 q=-1.0 size=   10992kB time=00:02:50.53 bitrate= 528.0kbits/s    frame= 2569 fps= 16 q=-1.0 size=   11055kB time=00:02:51.13 bitrate= 529.2kbits/s    frame= 2577 fps= 16 q=-1.0 size=   11120kB time=00:02:51.66 bitrate= 530.6kbits/s    frame= 2584 fps= 16 q=-1.0 size=   11125kB time=00:02:52.13 bitrate= 529.5kbits/s    frame= 2592 fps= 16 q=-1.0 size=   11128kB time=00:02:52.66 bitrate= 528.0kbits/s    frame= 2601 fps= 16 q=-1.0 size=   11197kB time=00:02:53.26 bitrate= 529.4kbits/s    frame= 2609 fps= 16 q=-1.0 size=   11251kB time=00:02:53.80 bitrate= 530.3kbits/s    frame= 2617 fps= 16 q=-1.0 size=   11257kB time=00:02:54.33 bitrate= 529.0kbits/s    frame= 2624 fps= 15 q=-1.0 size=   11261kB time=00:02:54.80 bitrate= 527.7kbits/s    frame= 2633 fps= 15 q=-1.0 size=   11333kB time=00:02:55.40 bitrate= 529.3kbits/s    frame= 2641 fps= 15 q=-1.0 size=   11389kB time=00:02:55.93 bitrate= 530.3kbits/s    frame= 2649 fps= 15 q=-1.0 size=   11398kB time=00:02:56.46 bitrate= 529.1kbits/s    frame= 2656 fps= 15 q=-1.0 size=   11402kB time=00:02:56.93 bitrate= 527.9kbits/s    frame= 2665 fps= 15 q=-1.0 size=   11472kB time=00:02:57.53 bitrate= 529.3kbits/s    frame= 2672 fps= 15 q=-1.0 size=   11475kB time=00:02:58.00 bitrate= 528.1kbits/s    frame= 2681 fps= 15 q=-1.0 size=   11543kB time=00:02:58.60 bitrate= 529.5kbits/s    frame= 2689 fps= 15 q=-1.0 size=   11608kB time=00:02:59.13 bitrate= 530.8kbits/s    frame= 2697 fps= 15 q=-1.0 size=   11614kB time=00:02:59.66 bitrate= 529.6kbits/s    frame= 2704 fps= 15 q=-1.0 size=   11616kB time=00:03:00.13 bitrate= 528.3kbits/s    frame= 2712 fps= 15 q=-1.0 size=   11671kB time=00:03:00.66 bitrate= 529.2kbits/s    frame= 2720 fps= 15 q=-1.0 size=   11677kB time=00:03:01.20 bitrate= 527.9kbits/s    frame= 2729 fps= 15 q=-1.0 size=   11743kB time=00:03:01.80 bitrate= 529.2kbits/s    frame= 2736 fps= 15 q=-1.0 size=   11748kB time=00:03:02.26 bitrate= 528.0kbits/s    frame= 2744 fps= 15 q=-1.0 size=   11823kB time=00:03:02.80 bitrate= 529.8kbits/s    frame= 2752 fps= 15 q=-1.0 size=   11826kB time=00:03:03.33 bitrate= 528.4kbits/s    frame= 2760 fps= 15 q=-1.0 size=   11893kB time=00:03:03.86 bitrate= 529.9kbits/s    frame= 2768 fps= 15 q=-1.0 size=   11895kB time=00:03:04.40 bitrate= 528.4kbits/s    frame= 2776 fps= 15 q=-1.0 size=   11956kB time=00:03:04.93 bitrate= 529.6kbits/s    frame= 2784 fps= 15 q=-1.0 size=   11960kB time=00:03:05.46 bitrate= 528.2kbits/s    frame= 2791 fps= 15 q=-1.0 size=   12004kB time=00:03:05.93 bitrate= 528.9kbits/s    frame= 2799 fps= 15 q=-1.0 size=   12013kB time=00:03:06.46 bitrate= 527.8kbits/s    frame= 2807 fps= 15 q=-1.0 size=   12068kB time=00:03:07.00 bitrate= 528.7kbits/s    frame= 2815 fps= 15 q=-1.0 size=   12079kB time=00:03:07.53 bitrate= 527.7kbits/s    frame= 2824 fps= 15 q=-1.0 size=   12144kB time=00:03:08.13 bitrate= 528.8kbits/s    frame= 2832 fps= 15 q=-1.0 size=   12151kB time=00:03:08.66 bitrate= 527.6kbits/s    frame= 2839 fps= 15 q=-1.0 size=   12219kB time=00:03:09.13 bitrate= 529.2kbits/s    frame= 2847 fps= 15 q=-1.0 size=   12224kB time=00:03:09.66 bitrate= 528.0kbits/s    frame= 2855 fps= 15 q=-1.0 size=   12292kB time=00:03:10.20 bitrate= 529.4kbits/s    frame= 2863 fps= 15 q=-1.0 size=   12297kB time=00:03:10.73 bitrate= 528.2kbits/s    frame= 2872 fps= 15 q=-1.0 size=   12339kB time=00:03:11.33 bitrate= 528.3kbits/s    frame= 2880 fps= 15 q=-1.0 size=   12354kB time=00:03:11.86 bitrate= 527.5kbits/s    frame= 2887 fps= 15 q=-1.0 size=   12409kB time=00:03:12.33 bitrate= 528.5kbits/s    frame= 2895 fps= 15 q=-1.0 size=   12421kB time=00:03:12.86 bitrate= 527.6kbits/s    frame= 2903 fps= 15 q=-1.0 size=   12481kB time=00:03:13.40 bitrate= 528.7kbits/s    frame= 2910 fps= 15 q=-1.0 size=   12490kB time=00:03:13.86 bitrate= 527.8kbits/s    frame= 2918 fps= 15 q=-1.0 size=   12550kB time=00:03:14.40 bitrate= 528.9kbits/s    frame= 2926 fps= 15 q=-1.0 size=   12562kB time=00:03:14.93 bitrate= 527.9kbits/s    frame= 2934 fps= 15 q=-1.0 size=   12632kB time=00:03:15.46 bitrate= 529.4kbits/s    frame= 2942 fps= 15 q=-1.0 size=   12641kB time=00:03:16.00 bitrate= 528.3kbits/s    frame= 2950 fps= 15 q=-1.0 size=   12710kB time=00:03:16.53 bitrate= 529.8kbits/s    frame= 2957 fps= 15 q=-1.0 size=   12714kB time=00:03:17.00 bitrate= 528.7kbits/s    frame= 2966 fps= 15 q=-1.0 size=   12776kB time=00:03:17.60 bitrate= 529.7kbits/s    frame= 2976 fps= 15 q=-1.0 size=   12780kB time=00:03:18.26 bitrate= 528.1kbits/s    frame= 2984 fps= 15 q=-1.0 size=   12847kB time=00:03:18.80 bitrate= 529.4kbits/s    frame= 2992 fps= 15 q=-1.0 size=   12850kB time=00:03:19.33 bitrate= 528.1kbits/s    frame= 2999 fps= 15 q=-1.0 size=   12910kB time=00:03:19.80 bitrate= 529.3kbits/s    frame= 3008 fps= 15 q=-1.0 size=   12913kB time=00:03:20.40 bitrate= 527.9kbits/s    frame= 3015 fps= 15 q=-1.0 size=   12976kB time=00:03:20.86 bitrate= 529.2kbits/s    frame= 3024 fps= 15 q=-1.0 size=   12980kB time=00:03:21.46 bitrate= 527.8kbits/s    frame= 3032 fps= 15 q=-1.0 size=   13050kB time=00:03:22.00 bitrate= 529.2kbits/s    frame= 3040 fps= 15 q=-1.0 size=   13053kB time=00:03:22.53 bitrate= 528.0kbits/s    frame= 3047 fps= 15 q=-1.0 size=   13108kB time=00:03:23.00 bitrate= 529.0kbits/s    frame= 3055 fps= 15 q=-1.0 size=   13114kB time=00:03:23.53 bitrate= 527.8kbits/s    frame= 3062 fps= 15 q=-1.0 size=   13178kB time=00:03:24.00 bitrate= 529.2kbits/s    frame= 3070 fps= 15 q=-1.0 size=   13185kB time=00:03:24.53 bitrate= 528.1kbits/s    frame= 3079 fps= 15 q=-1.0 size=   13242kB time=00:03:25.13 bitrate= 528.8kbits/s    frame= 3087 fps= 15 q=-1.0 size=   13250kB time=00:03:25.66 bitrate= 527.8kbits/s    frame= 3095 fps= 15 q=-1.0 size=   13311kB time=00:03:26.20 bitrate= 528.8kbits/s    frame= 3102 fps= 15 q=-1.0 size=   13318kB time=00:03:26.66 bitrate= 527.9kbits/s    frame= 3110 fps= 15 q=-1.0 size=   13378kB time=00:03:27.20 bitrate= 528.9kbits/s    frame= 3118 fps= 15 q=-1.0 size=   13387kB time=00:03:27.73 bitrate= 527.9kbits/s    frame= 3126 fps= 15 q=-1.0 size=   13444kB time=00:03:28.26 bitrate= 528.8kbits/s    frame= 3134 fps= 15 q=-1.0 size=   13453kB time=00:03:28.80 bitrate= 527.8kbits/s    frame= 3142 fps= 15 q=-1.0 size=   13509kB time=00:03:29.33 bitrate= 528.6kbits/s    frame= 3150 fps= 15 q=-1.0 size=   13518kB time=00:03:29.86 bitrate= 527.7kbits/s    frame= 3158 fps= 15 q=-1.0 size=   13583kB time=00:03:30.40 bitrate= 528.8kbits/s    frame= 3166 fps= 15 q=-1.0 size=   13593kB time=00:03:30.93 bitrate= 527.9kbits/s    frame= 3174 fps= 15 q=-1.0 size=   13638kB time=00:03:31.46 bitrate= 528.3kbits/s    frame= 3183 fps= 15 q=-1.0 size=   13651kB time=00:03:32.06 bitrate= 527.3kbits/s    frame= 3190 fps= 15 q=-1.0 size=   13707kB time=00:03:32.53 bitrate= 528.3kbits/s    frame= 3198 fps= 15 q=-1.0 size=   13718kB time=00:03:33.06 bitrate= 527.4kbits/s    frame= 3206 fps= 15 q=-1.0 size=   13782kB time=00:03:33.60 bitrate= 528.6kbits/s    frame= 3214 fps= 15 q=-1.0 size=   13792kB time=00:03:34.13 bitrate= 527.6kbits/s    frame= 3222 fps= 15 q=-1.0 size=   13845kB time=00:03:34.66 bitrate= 528.4kbits/s    frame= 3230 fps= 15 q=-1.0 size=   13856kB time=00:03:35.20 bitrate= 527.5kbits/s    frame= 3238 fps= 15 q=-1.0 size=   13917kB time=00:03:35.73 bitrate= 528.5kbits/s    frame= 3246 fps= 15 q=-1.0 size=   13927kB time=00:03:36.26 bitrate= 527.5kbits/s    frame= 3255 fps= 15 q=-1.0 size=   13998kB time=00:03:36.86 bitrate= 528.8kbits/s    frame= 3264 fps= 15 q=-1.0 size=   14005kB time=00:03:37.46 bitrate= 527.6kbits/s    frame= 3272 fps= 15 q=-1.0 size=   14070kB time=00:03:38.00 bitrate= 528.7kbits/s    frame= 3280 fps= 15 q=-1.0 size=   14075kB time=00:03:38.53 bitrate= 527.6kbits/s    frame= 3288 fps= 15 q=-1.0 size=   14140kB time=00:03:39.06 bitrate= 528.8kbits/s    frame= 3297 fps= 15 q=-1.0 size=   14194kB time=00:03:39.66 bitrate= 529.3kbits/s    frame= 3304 fps= 15 q=-1.0 size=   14202kB time=00:03:40.13 bitrate= 528.5kbits/s    frame= 3312 fps= 15 q=-1.0 size=   14209kB time=00:03:40.66 bitrate= 527.5kbits/s    frame= 3320 fps= 15 q=-1.0 size=   14273kB time=00:03:41.20 bitrate= 528.6kbits/s    frame= 3328 fps= 15 q=-1.0 size=   14278kB time=00:03:41.73 bitrate= 527.5kbits/s    frame= 3335 fps= 15 q=-1.0 size=   14347kB time=00:03:42.20 bitrate= 529.0kbits/s    frame= 3344 fps= 15 q=-1.0 size=   14353kB time=00:03:42.80 bitrate= 527.7kbits/s    frame= 3352 fps= 15 q=-1.0 size=   14416kB time=00:03:43.33 bitrate= 528.8kbits/s    frame= 3361 fps= 15 q=-1.0 size=   14478kB time=00:03:43.93 bitrate= 529.6kbits/s    frame= 3369 fps= 15 q=-1.0 size=   14485kB time=00:03:44.46 bitrate= 528.6kbits/s    frame= 3377 fps= 15 q=-1.0 size=   14546kB time=00:03:45.00 bitrate= 529.6kbits/s    frame= 3386 fps= 15 q=-1.0 size=   14553kB time=00:03:45.60 bitrate= 528.5kbits/s    frame= 3394 fps= 15 q=-1.0 size=   14616kB time=00:03:46.13 bitrate= 529.5kbits/s    frame= 3403 fps= 15 q=-1.0 size=   14622kB time=00:03:46.73 bitrate= 528.3kbits/s    frame= 3411 fps= 15 q=-1.0 size=   14685kB time=00:03:47.26 bitrate= 529.3kbits/s    frame= 3419 fps= 15 q=-1.0 size=   14692kB time=00:03:47.80 bitrate= 528.3kbits/s    frame= 3427 fps= 15 q=-1.0 size=   14745kB time=00:03:48.33 bitrate= 529.0kbits/s    frame= 3435 fps= 15 q=-1.0 size=   14753kB time=00:03:48.86 bitrate= 528.1kbits/s    frame= 3443 fps= 15 q=-1.0 size=   14812kB time=00:03:49.40 bitrate= 529.0kbits/s    frame= 3451 fps= 15 q=-1.0 size=   14821kB time=00:03:49.93 bitrate= 528.1kbits/s    frame= 3458 fps= 15 q=-1.0 size=   14882kB time=00:03:50.40 bitrate= 529.1kbits/s    frame= 3466 fps= 15 q=-1.0 size=   14888kB time=00:03:50.93 bitrate= 528.1kbits/s    frame= 3475 fps= 15 q=-1.0 size=   14953kB time=00:03:51.53 bitrate= 529.1kbits/s    frame= 3482 fps= 15 q=-1.0 size=   14960kB time=00:03:52.00 bitrate= 528.2kbits/s    frame= 3490 fps= 15 q=-1.0 size=   15018kB time=00:03:52.53 bitrate= 529.1kbits/s    